<svg width="85" height="85" viewBox="0 0 85 85" fill="none" xmlns="http://www.w3.org/2000/svg">
<path fill-rule="evenodd" clip-rule="evenodd" d="M42.5 85C65.9721 85 85 65.9721 85 42.5C85 19.0279 65.9721 0 42.5 0C19.0279 0 0 19.0279 0 42.5C0 65.9721 19.0279 85 42.5 85Z" fill="#3DDC97"/>
<path fill-rule="evenodd" clip-rule="evenodd" d="M28.5518 51L22 63.4336L30.6377 61.71L33.3252 70.4678L41.5 56L50.8115 70.4678L53.8584 61.71L63 63.4336L55.46 51H28.5518Z" fill="white"/>
<path fill-rule="evenodd" clip-rule="evenodd" d="M42.5 56C53.8218 56 63 46.8218 63 35.5C63 24.1782 53.8218 15 42.5 15C31.1782 15 22 24.1782 22 35.5C22 46.8218 31.1782 56 42.5 56Z" fill="white"/>
<path fill-rule="evenodd" clip-rule="evenodd" d="M43 49C50.1797 49 56 43.1797 56 36C56 28.8203 50.1797 23 43 23C35.8203 23 30 28.8203 30 36C30 43.1797 35.8203 49 43 49Z" fill="#3DDC97"/>
<path fill-rule="evenodd" clip-rule="evenodd" d="M40.1729 31.9262L42.8481 27L45.5124 31.9262L52 32.644L47.7981 37.569L48.4956 43L42.8481 40.6822L37.7064 43L38.5481 37.569L34 33.2279L40.1729 31.9262Z" fill="white"/>
</svg>
