<svg width="85" height="85" viewBox="0 0 85 85" fill="none" xmlns="http://www.w3.org/2000/svg">
<path fill-rule="evenodd" clip-rule="evenodd" d="M42.5 85C65.9721 85 85 65.9721 85 42.5C85 19.0279 65.9721 0 42.5 0C19.0279 0 0 19.0279 0 42.5C0 65.9721 19.0279 85 42.5 85Z" fill="#FCBB10"/>
<path fill-rule="evenodd" clip-rule="evenodd" d="M66.3205 37.6337C66.3205 37.6337 61.8002 44.6962 58.4778 39.3792C55.1554 34.0623 63.3409 32.8654 63.3409 32.8654L57.2861 23.1757L46.5129 29.9076C46.5129 29.9076 53.2788 35.4479 48.5467 38.4048C43.8146 41.3618 41.1292 33.2717 41.1292 33.2717L30.5446 39.8857L36.5993 49.5754C36.5993 49.5754 32.7236 49.4649 30.6232 50.7774C28.5228 52.0898 28.8718 55.0736 30.1326 57.0913C31.3934 59.1089 33.9861 60.6337 36.3048 59.8699C38.6236 59.1061 39.5789 54.3436 39.5789 54.3436L45.6227 64.0159L56.2074 57.4018C56.2074 57.4018 56.8718 63.4747 57.1384 63.9013C58.8293 66.6073 63.2131 66.6393 65.3537 65.3017C67.4943 63.9641 67.3487 60.6415 66.3392 58.152C65.3298 55.6624 60.7353 54.5725 60.7353 54.5725L72.3643 47.3059L66.3205 37.6337Z" fill="white"/>
<path fill-rule="evenodd" clip-rule="evenodd" d="M32.2903 62.593C32.2903 62.593 28.8796 54.7084 35.302 54.9327C41.7245 55.157 38.05 62.7941 38.05 62.7941L49.7543 63.2029L50.2085 50.1974C50.2085 50.1974 41.6226 52.7695 41.8221 47.0569C42.0216 41.3443 50.4354 43.6982 50.4354 43.6982L50.8817 30.9203L39.1773 30.5116C39.1773 30.5116 41.4926 27.2835 41.5811 24.7479C41.6697 22.2122 38.9342 20.7994 36.4969 20.7143C34.0597 20.6292 31.278 21.9576 30.5981 24.3643C29.9182 26.7711 33.4176 30.3105 33.4176 30.3105L21.7343 29.9025L21.2881 42.6803C21.2881 42.6803 15.7468 39.7657 15.2315 39.7477C11.9629 39.6336 9.42302 43.3383 9.33278 45.9224C9.24254 48.5064 12.1495 50.2861 14.8436 50.855C17.5377 51.424 21.0972 48.1464 21.0972 48.1464L20.607 62.185L32.2903 62.593Z" fill="white" stroke="#FCBB10"/>
</svg>
