<svg width="147" height="147" viewBox="0 0 147 147" fill="none" xmlns="http://www.w3.org/2000/svg">
<g clip-path="url(#clip0)">
<path d="M121.655 39.8521V60.8274V81.9472L89.1074 109.071L147 147V60.8274L121.655 39.8521Z" fill="#D8C782"/>
<path d="M25.3449 60.8274V39.8521L0 60.8274V147L57.8927 109.071L25.3449 81.9472V60.8274Z" fill="#D8C782"/>
<path d="M121.655 60.8274H147L121.655 39.8521V60.8274Z" fill="#F7E6A1"/>
<path d="M25.3449 39.8521L0 60.8274H25.3449V39.8521Z" fill="#F7E6A1"/>
<path d="M91.2415 15.207L73.5001 0L55.7588 15.207H91.2415Z" fill="#F7E6A1"/>
<path d="M25.3449 60.8276H0V147H147V60.8276H121.655" fill="#D8C782"/>
<path d="M121.655 60.8276V81.9474L89.1074 109.071L147 147V60.8276H121.655Z" fill="#D8C782"/>
<path d="M25.3449 81.9474V60.8276H0V147L57.8927 109.071L25.3449 81.9474Z" fill="#D8C782"/>
<path d="M93.3652 15.207H25.3447V81.9476L57.8926 109.069L66.3121 103.551C70.6764 100.693 76.3233 100.693 80.6876 103.551L89.1071 109.069L121.655 81.9476V15.207H93.3652Z" fill="#E7ECED"/>
<path d="M89.1074 109.071L147 147V60.8276L89.1074 109.071Z" fill="#F7E6A1"/>
<path d="M0 60.8276V147L57.8927 109.071L0 60.8276Z" fill="#F7E6A1"/>
<path d="M116.586 50.6897C130.584 50.6897 141.931 39.3425 141.931 25.3449C141.931 11.3473 130.584 0 116.586 0C102.588 0 91.2412 11.3473 91.2412 25.3449C91.2412 39.3425 102.588 50.6897 116.586 50.6897Z" fill="#25AE88"/>
<path d="M93.776 63.3622H76.0346C74.6355 63.3622 73.5 62.2292 73.5 60.8276C73.5 59.4259 74.6355 58.293 76.0346 58.293H93.776C95.175 58.293 96.3106 59.4259 96.3106 60.8276C96.3103 62.2292 95.1747 63.3622 93.776 63.3622Z" fill="#DD352E"/>
<path d="M65.8962 63.3622H38.017C36.6179 63.3622 35.4824 62.2292 35.4824 60.8276C35.4824 59.4259 36.6179 58.293 38.017 58.293H65.8962C67.2953 58.293 68.4308 59.4259 68.4308 60.8276C68.4308 62.2292 67.2953 63.3622 65.8962 63.3622Z" fill="#23A24D"/>
<path d="M101.378 88.7069H83.6371C82.2381 88.7069 81.1025 87.574 81.1025 86.1723C81.1025 84.7706 82.2381 83.6377 83.6371 83.6377H101.378C102.778 83.6377 103.913 84.7706 103.913 86.1723C103.913 87.574 102.778 88.7069 101.378 88.7069Z" fill="#DC691D"/>
<path d="M73.4997 88.7069H45.6205C44.2215 88.7069 43.0859 87.574 43.0859 86.1723C43.0859 84.7706 44.2215 83.6377 45.6205 83.6377H73.4997C74.8988 83.6377 76.0343 84.7706 76.0343 86.1723C76.0343 87.574 74.8988 88.7069 73.4997 88.7069Z" fill="#EBBA16"/>
<path d="M108.983 63.3622H103.914C102.515 63.3622 101.38 62.2292 101.38 60.8276C101.38 59.4259 102.515 58.293 103.914 58.293H108.983C110.382 58.293 111.518 59.4259 111.518 60.8276C111.518 62.2292 110.382 63.3622 108.983 63.3622Z" fill="#6B1E31"/>
<path d="M70.9654 76.0345H53.2241C51.825 76.0345 50.6895 74.9016 50.6895 73.4999C50.6895 72.0983 51.825 70.9653 53.2241 70.9653H70.9654C72.3645 70.9653 73.5 72.0983 73.5 73.4999C73.5 74.9016 72.3645 76.0345 70.9654 76.0345Z" fill="#FC3952"/>
<path d="M108.982 76.0345H81.103C79.7039 76.0345 78.5684 74.9016 78.5684 73.4999C78.5684 72.0983 79.7039 70.9653 81.103 70.9653H108.982C110.381 70.9653 111.517 72.0983 111.517 73.4999C111.517 74.9016 110.381 76.0345 108.982 76.0345Z" fill="#366DB6"/>
<path d="M53.2242 50.6898H35.4828C34.0838 50.6898 32.9482 49.5569 32.9482 48.1552C32.9482 46.7535 34.0838 45.6206 35.4828 45.6206H53.2242C54.6233 45.6206 55.7588 46.7535 55.7588 48.1552C55.7588 49.5569 54.6233 50.6898 53.2242 50.6898Z" fill="#EBBA16"/>
<path d="M91.2409 50.6898H63.3618C61.9627 50.6898 60.8271 49.5569 60.8271 48.1552C60.8271 46.7535 61.9627 45.6206 63.3618 45.6206H91.2409C92.64 45.6206 93.7755 46.7535 93.7755 48.1552C93.7755 49.5569 92.64 50.6898 91.2409 50.6898Z" fill="#DC691D"/>
<path d="M43.0859 76.0345H38.017C36.6179 76.0345 35.4824 74.9016 35.4824 73.4999C35.4824 72.0983 36.6179 70.9653 38.017 70.9653H43.0859C44.485 70.9653 45.6205 72.0983 45.6205 73.4999C45.6205 74.9016 44.485 76.0345 43.0859 76.0345Z" fill="#75348B"/>
<path d="M83.6378 38.0174H53.2241C51.825 38.0174 50.6895 36.8845 50.6895 35.4828C50.6895 34.0812 51.825 32.9482 53.2241 32.9482H83.6378C85.0369 32.9482 86.1724 34.0812 86.1724 35.4828C86.1724 36.8845 85.0369 38.0174 83.6378 38.0174Z" fill="#366DB6"/>
<path d="M43.0859 38.0174H38.017C36.6179 38.0174 35.4824 36.8845 35.4824 35.4828C35.4824 34.0812 36.6179 32.9482 38.017 32.9482H43.0859C44.485 32.9482 45.6205 34.0812 45.6205 35.4828C45.6205 36.8845 44.485 38.0174 43.0859 38.0174Z" fill="#CB465F"/>
<path d="M114.052 35.4829C113.38 35.4829 112.736 35.2194 112.26 34.7405L104.656 27.1369C103.665 26.1458 103.665 24.5441 104.656 23.5532C105.645 22.5621 107.252 22.5621 108.24 23.5532L113.882 29.1949L124.778 16.1194C125.675 15.0422 127.271 14.9029 128.346 15.795C129.421 16.6922 129.568 18.2888 128.671 19.366L115.998 34.5731C115.542 35.1206 114.878 35.4499 114.166 35.4803C114.128 35.4829 114.09 35.4829 114.052 35.4829Z" fill="white"/>
</g>
<defs>
<clipPath id="clip0">
<rect width="147" height="147" fill="white"/>
</clipPath>
</defs>
</svg>
