<svg width="85" height="85" viewBox="0 0 85 85" fill="none" xmlns="http://www.w3.org/2000/svg">
<path fill-rule="evenodd" clip-rule="evenodd" d="M42.5 85C65.9721 85 85 65.9721 85 42.5C85 19.0279 65.9721 0 42.5 0C19.0279 0 0 19.0279 0 42.5C0 65.9721 19.0279 85 42.5 85Z" fill="#ED427A"/>
<rect x="16" y="23" width="53" height="40" rx="1" fill="white"/>
<path fill-rule="evenodd" clip-rule="evenodd" d="M43 55C49.0751 55 54 49.8513 54 43.5C54 37.1487 49.0751 32 43 32C36.9249 32 32 37.1487 32 43.5C32 49.8513 36.9249 55 43 55Z" fill="#ED427A"/>
<path fill-rule="evenodd" clip-rule="evenodd" d="M39 39V48L48 43.5L39 39Z" fill="white"/>
</svg>
