<svg width="85" height="85" viewBox="0 0 85 85" fill="none" xmlns="http://www.w3.org/2000/svg">
<path fill-rule="evenodd" clip-rule="evenodd" d="M42.5 85C65.9721 85 85 65.9721 85 42.5C85 19.0279 65.9721 0 42.5 0C19.0279 0 0 19.0279 0 42.5C0 65.9721 19.0279 85 42.5 85Z" fill="#008ECF"/>
<rect x="25" y="27" width="27" height="44" rx="2" fill="white"/>
<rect width="7" height="44" rx="2" transform="matrix(-1 0 0 1 59 27)" fill="white"/>
<path fill-rule="evenodd" clip-rule="evenodd" d="M37 58.5703C40.3137 58.5703 43 55.884 43 52.5703C43 49.2566 40.3137 46.5703 37 46.5703C33.6863 46.5703 31 49.2566 31 52.5703C31 55.884 33.6863 58.5703 37 58.5703Z" fill="#008ECF"/>
<path fill-rule="evenodd" clip-rule="evenodd" d="M40 48.1055C40 48.1055 40.3207 44.635 41.771 43.545C43.2212 42.455 46.0679 43.545 46.0679 43.545C46.0679 43.545 47.4028 44.5918 46.0679 46.5704C44.733 48.5489 41.771 49.9136 41.771 49.9136L40 48.1055Z" fill="#008ECF"/>
<path fill-rule="evenodd" clip-rule="evenodd" d="M38.8477 46.8847C38.8477 46.8847 36.8626 44.0199 37.2729 42.2528C37.6832 40.4856 40.5645 39.4908 40.5645 39.4908C40.5645 39.4908 42.26 39.4346 42.5092 41.8084C42.7584 44.1821 41.3666 47.1314 41.3666 47.1314L38.8477 46.8847Z" fill="#008ECF" stroke="white"/>
<path d="M23.5 36.5H52.5" stroke="#008ECF" stroke-linecap="square"/>
<path d="M52.5 27.5L52 71" stroke="#008ECF" stroke-linecap="square"/>
<path d="M23 62H52" stroke="#008ECF" stroke-linecap="square"/>
<path d="M59.5 34.5L52.8779 35.9474" stroke="#008ECF" stroke-linecap="square"/>
<path d="M60.5 59.5L52.8779 61.9474" stroke="#008ECF" stroke-linecap="square"/>
<path fill-rule="evenodd" clip-rule="evenodd" d="M31 27.5L31.853 18.7671H26.001V14H35.5659V27.5H31Z" fill="white"/>
</svg>
